PathFileType	4	(X/Y/Z)	C:/Users/opensim2020/Desktop/walking_exp_matlab/subject02_walking15_straight_01.trc																																																																																																																												
DataRate	CameraRate	NumFrames	NumMarkers	Units	OrigDataRate	OrigDataStartFrame	OrigNumFrames																																																																																																																								
100	100	5	42	mm	100	491	165																																																																																																																								
Frame#	Time	LFHD			RFHD			LBHD			RBHD			C7			T10			CLAV			STRN			RBAK			LSHO			LUPA			LELB			LFRM			LWRA			LWRB			LFIN			RSHO			RUPA			RELB			RFRM			RWRA			RWRB			RFIN			LASI			RASI			LPSI			RPSI			LTHI			LKNE			LTIB			LANK			LHEE			LTOE			RTHI			RKNE			RTIB			RANK			RHEE			RTOE			*39			*40			*41		
		X1	Y1	Z1	X2	Y2	Z2	X3	Y3	Z3	X4	Y4	Z4	X5	Y5	Z5	X6	Y6	Z6	X7	Y7	Z7	X8	Y8	Z8	X9	Y9	Z9	X10	Y10	Z10	X11	Y11	Z11	X12	Y12	Z12	X13	Y13	Z13	X14	Y14	Z14	X15	Y15	Z15	X16	Y16	Z16	X17	Y17	Z17	X18	Y18	Z18	X19	Y19	Z19	X20	Y20	Z20	X21	Y21	Z21	X22	Y22	Z22	X23	Y23	Z23	X24	Y24	Z24	X25	Y25	Z25	X26	Y26	Z26	X27	Y27	Z27	X28	Y28	Z28	X29	Y29	Z29	X30	Y30	Z30	X31	Y31	Z31	X32	Y32	Z32	X33	Y33	Z33	X34	Y34	Z34	X35	Y35	Z35	X36	Y36	Z36	X37	Y37	Z37	X38	Y38	Z38	X39	Y39	Z39	X40	Y40	Z40	X41	Y41	Z41	X42	Y42	Z42
																																																																																																																															
104	1.03	-34.98616	1724.88501	1521.03027	-33.04054	1711.1228	1664.99109	-166.35109	1650.6709	1517.4856	-177.00873	1635.84973	1659.94678	-220.84825	1509.49548	1593.64307	-263.14291	1231.11218	1603.46362	-82.14814	1445.44922	1577.98474	-23.27527	1275.89221	1581.59985	-272.88614	1330.14075	1654.8728	-160.1051	1488.35144	1413.02625	-154.99309	1296.28784	1319.18652	-121.73784	1158.52344	1288.58228	-17.82355	1071.3241	1289.05786	108.86417	1042.04993	1329.78784	81.50496	1001.22162	1302.72131	143.42937	984.00507	1297.15125	-145.42958	1475.80664	1776.36035	-199.10178	1292.30627	1858.88599	-206.7146	1148.76501	1879.53064	-205.48553	1032.63806	1910.51392	-183.60684	896.89844	1907.02502	-233.53481	907.06775	1931.974	-213.87779	837.71686	1943.35974	-49.38486	962.66602	1456.33594	-10.17928	973.91296	1701.5686	-244.36333	1014.64026	1556.6311	-232.66057	1022.42041	1672.78894	-135.1591	649.23578	1404.28125	-165.12961	466.34543	1423.11536	-320.74741	369.6832	1456.59436	-463.96701	212.23235	1512.4895	-485.40445	211.3875	1577.19116	-414.68005	72.936	1463.00159	-19.32947	675.6601	1779.89478	8.9959	468.66672	1734.1759	-22.04694	282.39709	1748.47217	-42.8265	90.7513	1715.82727	-86.45706	36.86069	1667.35388	109.17211	39.21524	1707.86743	-134.51721	1794.00073	1610.6134	2846.00073	1034.27869	-3356.78687	NaN	NaN	NaN
105	1.04	-22.64017	1727.64038	1520.94824	-20.50353	1713.56262	1664.80237	-154.09886	1653.47766	1517.60559	-164.40685	1638.42603	1660.22888	-208.32442	1512.21277	1594.0907	-250.60741	1233.59424	1604.10522	-69.80771	1448.11865	1577.62964	-10.90981	1278.45154	1581.23108	-260.04733	1332.93677	1656.20837	-148.87579	1490.59473	1413.00635	-146.99396	1297.7113	1319.67151	-115.20743	1159.38586	1290.0885	-14.48481	1068.39038	1289.53174	111.46148	1033.80469	1328.96155	82.28624	994.31122	1301.81726	143.34119	974.28223	1296.08215	-131.34595	1478.88599	1776.6095	-182.90764	1294.427	1859.68042	-188.99573	1151.04224	1880.43457	-186.35484	1034.53052	1910.77161	-162.78284	899.28918	1907.40271	-212.8575	908.92535	1932.68225	-192.16168	840.07251	1944.34241	-37.54345	965.44873	1455.48376	2.07201	976.0368	1702.01172	-232.24931	1017.15601	1557.95068	-220.42976	1024.91333	1673.60828	-115.69521	651.76166	1404.1084	-139.59346	469.44757	1422.80933	-293.89133	372.10678	1458.06274	-436.39233	213.83578	1514.3158	-457.76764	211.45288	1579.31079	-384.95126	76.84882	1461.58093	-11.81939	676.3269	1780.21448	13.11302	468.68344	1734.88062	-19.69337	282.19382	1749.09009	-42.7008	90.90295	1716.03687	-86.50953	36.56469	1667.29175	109.00887	39.2656	1707.98145	-122.25629	1796.47351	1610.5614	2845.98535	1034.27136	-3356.88159	NaN	NaN	NaN
106	1.05	-10.46292	1730.24438	1520.5769	-7.96621	1715.9823	1664.46851	-141.99638	1656.25525	1517.50134	-151.88315	1640.97766	1660.14441	-195.82852	1514.79565	1594.38757	-238.19159	1236.13379	1604.78516	-57.51719	1450.68494	1577.19324	1.37809	1280.99097	1580.77173	-247.46632	1335.98047	1657.70972	-137.71733	1492.86389	1412.91602	-137.9438	1299.30518	1320.724	-108.71886	1160.24121	1291.56372	-11.67467	1065.63538	1289.7616	113.30186	1025.177	1328.026	82.54282	987.16455	1301.34985	141.6002	963.92566	1294.84924	-117.2971	1481.92114	1776.6405	-166.86212	1296.59814	1860.14319	-171.2867	1153.03296	1880.6416	-166.6349	1036.93628	1911.32544	-141.57741	901.9505	1907.65051	-191.63623	910.83948	1933.23486	-169.72353	842.3761	1945.01672	-26.05054	968.57391	1454.37109	14.06175	977.93506	1702.19543	-220.2533	1019.67877	1559.19836	-208.23979	1027.25732	1674.35474	-96.47131	654.72388	1403.80029	-114.31844	472.67044	1422.36353	-267.12119	374.35397	1459.20972	-408.10294	214.10484	1515.45874	-429.38425	210.01175	1580.1864	-353.28445	79.20554	1460.90405	-4.89602	676.62268	1780.33105	16.28928	468.21683	1735.03479	-17.3982	282.34604	1749.72852	-42.64948	91.04941	1716.22485	-86.81174	36.87316	1667.38025	108.81973	39.31742	1708.0791	-109.78739	1798.98181	1610.57446	2845.94165	1034.31799	-3356.95947	NaN	NaN	NaN
107	1.06	1.76711	1732.55237	1520.02271	4.63132	1718.26355	1663.98914	-129.81577	1658.82068	1517.31848	-139.39381	1643.41895	1659.9751	-183.50041	1517.24304	1594.67603	-225.7794	1238.57678	1605.4198	-45.18448	1453.18652	1576.70276	13.61432	1283.40332	1580.1991	-234.56471	1338.42041	1658.66846	-126.51941	1495.01221	1412.85754	-129.36882	1300.9834	1321.20728	-102.29739	1161.14612	1292.95679	-9.05735	1062.43494	1289.96436	114.31301	1016.20129	1327.12012	81.34113	980.30505	1299.65405	139.73564	953.46063	1293.95569	-103.36821	1485.08862	1776.59937	-150.28082	1299.12659	1861.07727	-153.25687	1155.17358	1881.08899	-146.88007	1039.13013	1911.4386	-119.93871	904.73004	1907.67517	-169.92967	912.80206	1933.6156	-146.75177	844.86005	1945.42297	-14.73827	971.79144	1453.04211	25.91546	979.67065	1702.35278	-208.20653	1022.23053	1560.45496	-196.14977	1029.49561	1675.19324	-77.07893	657.6734	1403.40906	-89.62591	475.86194	1421.95178	-240.45718	376.25708	1460.36365	-378.24841	212.47374	1516.39209	-400.2132	207.62358	1581.20776	-319.85992	80.09312	1460.88074	1.58788	676.67474	1780.25684	19.513	468.19455	1735.80859	-15.76304	282.01495	1749.89221	-42.6334	91.13605	1716.35999	-87.17942	36.82043	1667.65601	108.59371	39.31856	1708.13989	-97.06243	1801.56299	1610.63354	2846.04077	1034.23608	-3356.8667	NaN	NaN	NaN
108	1.07	13.98832	1734.73694	1519.37207	17.29548	1720.39404	1663.35706	-117.64154	1661.0238	1516.854	-126.90448	1645.81787	1659.73657	-171.04027	1519.44629	1594.85339	-213.37375	1240.88	1606.12268	-32.88039	1455.50513	1576.11829	25.87918	1285.65613	1579.61621	-221.80318	1341.09448	1659.97571	-115.4007	1496.9989	1412.69751	-120.68173	1302.59814	1321.74133	-95.95621	1162.13977	1294.39221	-6.79673	1059.59473	1290.10095	114.55936	1006.95642	1326.10815	79.54405	972.76642	1298.75012	137.16621	942.93823	1293.26221	-89.79495	1487.98425	1776.10352	-133.94321	1301.52551	1861.67932	-134.99113	1157.6366	1881.78125	-126.71223	1041.46045	1911.57483	-97.86465	907.59943	1907.50354	-147.76439	914.76843	1933.89124	-123.12422	847.38025	1945.67737	-3.82792	975.13062	1451.73779	37.69188	981.18817	1702.52039	-196.14951	1024.78027	1561.6748	-184.06	1031.55261	1676.01514	-57.58253	660.86334	1402.85388	-65.44261	479.01852	1421.55701	-213.71442	377.51407	1461.47217	-348.00394	209.76622	1516.85962	-370.4534	204.36775	1581.52234	-284.96799	79.86338	1461.14258	8.44845	677.20898	1780.71631	22.08342	467.66241	1735.97571	-14.37998	281.85776	1750.1908	-42.64638	91.1965	1716.39124	-87.1746	36.98932	1667.96167	108.50307	39.30825	1708.27393	-84.57082	1803.68372	1610.10022	2845.38892	1034.19543	-3360.53711	NaN	NaN	NaN
